<svg width="12" height="12" viewBox="0 0 12 12" fill="none" xmlns="http://www.w3.org/2000/svg">
<path fill-rule="evenodd" clip-rule="evenodd" d="M1 3.00024C1 2.17182 1.67157 1.50024 2.5 1.50024H9.5C10.3284 1.50024 11 2.17182 11 3.00024V8.00024C11 8.82867 10.3284 9.50024 9.5 9.50024H4.18103C4.06406 9.50024 3.95079 9.54125 3.86093 9.61613L2.64018 10.6334C1.98886 11.1762 1 10.713 1 9.8652V3.00024ZM3.5 4.50024C3.5 4.2241 3.72386 4.00024 4 4.00024H8C8.27614 4.00024 8.5 4.2241 8.5 4.50024C8.5 4.77639 8.27614 5.00024 8 5.00024H4C3.72386 5.00024 3.5 4.77639 3.5 4.50024ZM4 6.00024C3.72386 6.00024 3.5 6.2241 3.5 6.50024C3.5 6.77639 3.72386 7.00024 4 7.00024H6C6.27614 7.00024 6.5 6.77639 6.5 6.50024C6.5 6.2241 6.27614 6.00024 6 6.00024H4Z" fill="white"/>
</svg>
