<svg width="20" height="21" viewBox="0 0 20 21" fill="none" xmlns="http://www.w3.org/2000/svg">
<path d="M8.44676 3.21284C8.96559 1.72023 11.0765 1.72023 11.5953 3.21283L12.3832 5.47963C12.6121 6.13808 13.2266 6.58453 13.9236 6.59874L16.3229 6.64763C17.9028 6.67983 18.5551 8.6874 17.2959 9.64207L15.3835 11.0919C14.828 11.5131 14.5933 12.2354 14.7951 12.9027L15.4901 15.1997C15.9477 16.7122 14.2399 17.9529 12.9428 17.0504L10.973 15.6796C10.4008 15.2815 9.64126 15.2815 9.06907 15.6796L7.09922 17.0504C5.80215 17.9529 4.09441 16.7122 4.55199 15.1997L5.24693 12.9027C5.44879 12.2354 5.21408 11.5131 4.65858 11.0919L2.74622 9.64208C1.48699 8.6874 2.13929 6.67983 3.71917 6.64763L6.11851 6.59874C6.81546 6.58453 7.42995 6.13808 7.65882 5.47963L8.44676 3.21284Z" fill="#FFD88D"/>
</svg>
