<svg width="12" height="12" viewBox="0 0 12 12" fill="none" xmlns="http://www.w3.org/2000/svg">
<path fill-rule="evenodd" clip-rule="evenodd" d="M6.00024 1.00024C4.89567 1.00024 4.00024 1.89567 4.00024 3.00024H3.32444C2.56795 3.00024 1.92985 3.56355 1.83602 4.31419L1.21102 9.31419C1.09911 10.2095 1.79719 11.0002 2.69944 11.0002H9.30109C10.2033 11.0002 10.9014 10.2095 10.7895 9.31419L10.1645 4.31419C10.0707 3.56355 9.43258 3.00024 8.67609 3.00024H8.00024C8.00024 1.89567 7.10481 1.00024 6.00024 1.00024ZM7.00024 3.00024C7.00024 2.44796 6.55253 2.00024 6.00024 2.00024C5.44796 2.00024 5.00024 2.44796 5.00024 3.00024H7.00024Z" fill="white"/>
</svg>
