<svg width="12" height="12" viewBox="0 0 12 12" fill="none" xmlns="http://www.w3.org/2000/svg">
<path d="M5.06796 1.92191C5.37926 1.02635 6.64579 1.02635 6.95709 1.92191L7.42985 3.28199C7.56718 3.67706 7.93587 3.94493 8.35404 3.95346L9.79364 3.98279C10.7416 4.00211 11.1329 5.20665 10.3774 5.77946L9.22999 6.64937C8.8967 6.90206 8.75587 7.33548 8.87699 7.73582L9.29395 9.11403C9.5685 10.0215 8.54385 10.766 7.76561 10.2244L6.5837 9.40199C6.24039 9.16309 5.78466 9.16309 5.44134 9.40199L4.25944 10.2244C3.48119 10.766 2.45655 10.0215 2.7311 9.11403L3.14806 7.73582C3.26918 7.33548 3.12835 6.90206 2.79505 6.64937L1.64763 5.77946C0.892099 5.20666 1.28348 4.00211 2.2314 3.98279L3.67101 3.95346C4.08918 3.94493 4.45787 3.67706 4.5952 3.28199L5.06796 1.92191Z" fill="white"/>
</svg>
